<svg xmlns="http://www.w3.org/2000/svg" xmlns:xlink="http://www.w3.org/1999/xlink" width="2001" height="1887.3" viewBox="0 0 2001 1887.3"><defs><style>.cls-1{stroke:#000;stroke-width:0.37px;fill:url(#Безымянный_градиент_12);}.cls-1,.cls-31,.cls-32,.cls-33{stroke-miterlimit:10;}.cls-2{fill:#dfe3e6;}.cls-3{fill:#ccd4d6;}.cls-4{fill:#8599a3;}.cls-5{fill:#b6c2c9;}.cls-6{fill:#fff;}.cls-7{fill:#c9d1d3;}.cls-8{fill:url(#Безымянный_градиент_24);}.cls-9{fill:url(#Безымянный_градиент_25);}.cls-10{fill:url(#Безымянный_градиент_42);}.cls-11{fill:#28b2f0;}.cls-12{fill:#467aa5;}.cls-13{fill:#a7b7bf;}.cls-14{fill:url(#Безымянный_градиент_18);}.cls-15{fill:#bdcad0;}.cls-16{fill:#e84a34;}.cls-17{fill:#feb422;}.cls-18{fill:#bdc9cf;}.cls-19{fill:#f04f33;}.cls-20{fill:#b5d1de;}.cls-21{fill:#fafafa;}.cls-22{fill:#cdd5d7;}.cls-23{fill:#879ba6;}.cls-24{fill:#ed4c33;}.cls-25{fill:url(#Безымянный_градиент_50);}.cls-26{fill:#fefefe;}.cls-27{fill:#fac858;}.cls-28{fill:#22c9e4;}.cls-29{fill:#88eebe;}.cls-30{fill:#f95830;}.cls-31,.cls-32,.cls-33{fill:none;stroke:#fff;stroke-width:8.15px;}.cls-32{stroke-dasharray:18.88 11.33;}.cls-33{stroke-dasharray:17.54 10.53;}.cls-34{fill:#17d0b4;}.cls-35,.cls-36{fill:#01979f;}.cls-36{font-size:120.47px;font-family:Garamond-Bold, Garamond;font-weight:700;}</style><linearGradient id="Безымянный_градиент_12" x1="1148.52" y1="664.14" x2="947.87" y2="1086.78" gradientUnits="userSpaceOnUse"><stop offset="0" stop-color="#7de1c9"/><stop offset="0.48" stop-color="#7be0c9"/><stop offset="0.65" stop-color="#74dcc7"/><stop offset="0.77" stop-color="#69d4c5"/><stop offset="0.87" stop-color="#58cac1"/><stop offset="0.96" stop-color="#42bcbd"/><stop offset="1" stop-color="#33b3ba"/></linearGradient><linearGradient id="Безымянный_градиент_24" x1="3897.47" y1="3772.71" x2="4238.96" y2="3772.71" gradientTransform="translate(-3088.3 -2758.4)" gradientUnits="userSpaceOnUse"><stop offset="0" stop-color="#32c0f8"/><stop offset="0.57" stop-color="#27aeec"/><stop offset="1" stop-color="#1c9ee1"/></linearGradient><linearGradient id="Безымянный_градиент_25" x1="4238.96" y1="3772.71" x2="4459.33" y2="3772.71" gradientTransform="translate(-3170.6 -2957)" gradientUnits="userSpaceOnUse"><stop offset="0" stop-color="#1c9ee1"/><stop offset="0.43" stop-color="#27aeec"/><stop offset="1" stop-color="#32c0f8"/></linearGradient><linearGradient id="Безымянный_градиент_42" x1="3884.65" y1="3772.42" x2="3804.6" y2="3772.95" gradientTransform="translate(-3021.9 -2597.9)" gradientUnits="userSpaceOnUse"><stop offset="0" stop-color="#aebcc3"/><stop offset="0.38" stop-color="#b1bfc5"/><stop offset="0.68" stop-color="#bbc7cd"/><stop offset="0.96" stop-color="#ccd6da"/><stop offset="1" stop-color="#cfd9dd"/></linearGradient><linearGradient id="Безымянный_градиент_18" x1="-3795.86" y1="1111.11" x2="-3215.62" y2="1111.11" gradientTransform="translate(4508.8 -105.7) scale(0.99 1)" gradientUnits="userSpaceOnUse"><stop offset="0" stop-color="#fda225"/><stop offset="0.31" stop-color="#fb9028"/><stop offset="0.93" stop-color="#f5632e"/><stop offset="1" stop-color="#f45d2f"/></linearGradient><linearGradient id="Безымянный_градиент_50" x1="1443.61" y1="1050.43" x2="1596.49" y2="1050.43" gradientUnits="userSpaceOnUse"><stop offset="0" stop-color="#e44336"/><stop offset="0.51" stop-color="#ea4934"/><stop offset="1" stop-color="#f65531"/></linearGradient></defs><g id="Слой_2" data-name="Слой 2"><path class="cls-1" d="M1055.4,264.3l539.7,312.2a139,139,0,0,1,69.3,120.4l-.5,623.4a139.1,139.1,0,0,1-69.6,120.3l-540.2,311.2a138.9,138.9,0,0,1-139-.1L375.5,1439.5a139.1,139.1,0,0,1-69.4-120.4l.6-623.5a138.7,138.7,0,0,1,69.6-120.2L916.5,264.1A139,139,0,0,1,1055.4,264.3Z"/><rect class="cls-2" x="365" y="869.4" width="429" height="482.01"/><rect class="cls-3" x="365" y="869.4" width="429" height="40.17"/><ellipse class="cls-4" cx="394.8" cy="889.5" rx="10.7" ry="10.9"/><ellipse class="cls-4" cx="418.8" cy="889.5" rx="10.7" ry="10.9"/><ellipse class="cls-4" cx="442.8" cy="889.5" rx="10.7" ry="10.9"/><rect class="cls-5" x="418.8" y="959.6" width="86.4" height="12.02"/><rect class="cls-5" x="418.8" y="999.5" width="254" height="327.9"/><rect class="cls-6" x="603" y="610.7" width="817.5" height="740.69"/><rect class="cls-7" x="603" y="610.7" width="817.5" height="44.83"/><circle class="cls-4" cx="632.4" cy="633.1" r="10.7"/><circle class="cls-4" cx="656.4" cy="633.1" r="10.7"/><circle class="cls-4" cx="680.4" cy="633.1" r="10.7"/><g id="ручка"><rect class="cls-8" x="809.1" y="982.6" width="341.5" height="63.55" transform="translate(-430.2 990) rotate(-45)"/><rect class="cls-9" x="1068.4" y="775.9" width="220.4" height="79.52" transform="translate(-231.6 1072.3) rotate(-45)"/><rect class="cls-10" x="763.3" y="1147.8" width="112.3" height="53.96" transform="translate(-590.7 923.5) rotate(-45)"/><path class="cls-11" d="M747.1,1213.3a3.5,3.5,0,0,0,0,5.1l10.8,10.9-17.6,17.6,7,7,17.6-17.6,10.9,10.9a3.6,3.6,0,0,0,5.1,0l15.8-15.8-33.9-33.9Z"/><path class="cls-12" d="M726.4,1254.8h21.3a0,0,0,0,1,0,0v9.9a0,0,0,0,1,0,0H726.4a4.9,4.9,0,0,1-4.9-4.9v0A4.9,4.9,0,0,1,726.4,1254.8Z" transform="translate(-675.6 888.3) rotate(-45)"/><path class="cls-13" d="M1291.8,716l-13.2-13.2a27.3,27.3,0,0,0-36-2.3l-20.8-20.7v-.2l-7.2-7.2a5.8,5.8,0,0,0-8.1,0L1057,821.9a16.1,16.1,0,0,0,0,22.8h0l153.4-153.5,20.6,20.6,28.1,28,23.7,23.8,9-9A27.4,27.4,0,0,0,1291.8,716Z"/></g><g id="карандаш"><rect class="cls-14" x="748.8" y="971.8" width="574.7" height="67.24" transform="translate(1014.4 -438.2) rotate(45)"/><rect class="cls-15" x="780.6" y="746.9" width="61.3" height="67.24" transform="translate(789.6 -345.1) rotate(45)"/><rect class="cls-16" x="737.3" y="703.5" width="61.3" height="67.24" transform="translate(746.2 -327.1) rotate(45)"/><rect class="cls-17" x="748.8" y="1001.4" width="574.7" height="8" transform="translate(1014.4 -438.2) rotate(45)"/><polygon class="cls-18" points="1301.1 1270.4 1258.4 1251.4 1215.7 1232.4 1239.5 1208.6 1263.3 1184.9 1282.2 1227.6 1301.1 1270.4"/><polygon class="cls-19" points="1301.1 1270.4 1288.9 1265.1 1276.9 1259.6 1283.6 1252.9 1290.4 1246.1 1295.8 1258.2 1301.1 1270.4"/></g><rect class="cls-6" x="435.6" y="1164.3" width="246.5" height="187.14"/><rect class="cls-20" x="459.1" y="1188.8" width="199.6" height="103.59"/><ellipse class="cls-21" cx="626.7" cy="1221.6" rx="18.1" ry="18.9"/><polygon class="cls-21" points="500.5 1221.6 525.2 1266.2 549.8 1310.7 500.5 1310.7 451.2 1310.7 475.9 1266.2 500.5 1221.6"/><polygon class="cls-21" points="559.2 1245.4 583.9 1289.9 608.5 1334.5 559.2 1334.5 509.9 1334.5 534.6 1289.9 559.2 1245.4"/><rect class="cls-21" x="1337.1" y="1195.4" width="286.2" height="189.17"/><rect class="cls-22" x="1337.1" y="1195.4" width="286.2" height="39.49"/><rect class="cls-23" x="1356.4" y="1208.4" width="106.5" height="13.32"/><rect class="cls-23" x="1356.4" y="1264.9" width="147.7" height="13.32"/><rect class="cls-23" x="1356.4" y="1295.9" width="217.6" height="13.32"/><rect class="cls-23" x="1356.4" y="1326.9" width="217.6" height="13.32"/><ellipse class="cls-23" cx="1602.8" cy="1215.1" rx="6.9" ry="7.8"/><polygon class="cls-24" points="1547.1 1050.4 1592.3 1024.3 1637.6 998.1 1637.6 1050.4 1637.6 1102.7 1592.3 1076.6 1547.1 1050.4"/><rect class="cls-25" x="1443.6" y="971.6" width="152.9" height="157.69" rx="11.6"/><polygon class="cls-26" points="1547.1 1050.4 1527 1064.6 1506.9 1078.8 1506.9 1050.4 1506.9 1022 1527 1036.2 1547.1 1050.4"/><rect class="cls-27" x="686.5" y="1415.4" width="63.5" height="63.5"/><rect class="cls-28" x="784.4" y="1415.4" width="63.5" height="63.5"/><rect class="cls-29" x="882.3" y="1415.4" width="63.5" height="63.5"/><rect class="cls-30" x="980.2" y="1415.4" width="63.5" height="63.5"/><rect class="cls-6" x="1078.2" y="1415.4" width="63.5" height="63.5"/><polyline class="cls-31" points="1318.3 1531.6 1318.3 1540.8 1309 1540.8"/><line class="cls-32" x1="1297.7" y1="1540.8" x2="1212.8" y2="1540.8"/><polyline class="cls-31" points="1207.1 1540.8 1197.8 1540.8 1197.8 1531.6"/><line class="cls-33" x1="1197.8" y1="1521" x2="1197.8" y2="1442.1"/><polyline class="cls-31" points="1197.8 1436.8 1197.8 1427.6 1207.1 1427.6"/><line class="cls-32" x1="1218.4" y1="1427.6" x2="1303.4" y2="1427.6"/><polyline class="cls-31" points="1309 1427.6 1318.3 1427.6 1318.3 1436.8"/><line class="cls-33" x1="1318.3" y1="1447.4" x2="1318.3" y2="1526.3"/><rect class="cls-6" x="1295.5" y="1520" width="41.6" height="41.62"/><rect class="cls-34" x="1303.6" y="1528.2" width="25.3" height="25.35"/><rect class="cls-6" x="1177" y="1520" width="41.6" height="41.62"/><rect class="cls-34" x="1185.2" y="1528.2" width="25.3" height="25.35"/><rect class="cls-6" x="1177" y="1406.8" width="41.6" height="41.62"/><rect class="cls-34" x="1185.2" y="1414.9" width="25.3" height="25.35"/><rect class="cls-6" x="1295.5" y="1406.8" width="41.6" height="41.62"/><rect class="cls-34" x="1303.6" y="1414.9" width="25.3" height="25.35"/><path class="cls-35" d="M468.3,719.9V841.2h83.3V719.9Zm36,101.9h-24V802.6h24Zm0-31.7h-24V770.9h24Zm0-31.6h-24V739.3h24Zm35.3,63.3H515.5V802.6h24.1Zm0-31.7H515.5V770.9h24.1Zm0-31.6H515.5V739.3h24.1Z"/><text class="cls-36" transform="translate(362.3 735.7) scale(1.03 1)">Т</text></g></svg>