<svg xmlns="http://www.w3.org/2000/svg" xmlns:xlink="http://www.w3.org/1999/xlink" width="2001" height="1887.3" viewBox="0 0 2001 1887.3"><defs><style>.cls-1{stroke:#000;stroke-miterlimit:10;stroke-width:0.37px;fill:url(#Безымянный_градиент_64);}.cls-2{fill:#4c87ec;}.cls-3{fill:#74a1fb;}.cls-4{fill:#a3bbdd;}.cls-13,.cls-14,.cls-4{opacity:0.74;}.cls-5{fill:#a1c6fa;}.cls-6{fill:url(#Безымянный_градиент_56);}.cls-7{fill:#2d4e91;}.cls-8{fill:#74c7f8;}.cls-9{fill:#fafafa;}.cls-10{font-size:75.11px;fill:#024fd1;font-family:MyriadPro-Regular, Myriad Pro;}.cls-11{letter-spacing:0.02em;}.cls-12{fill:#479dff;}.cls-13{fill:#4b79d4;}.cls-14{fill:#94b0e8;}.cls-15{fill:#497ac9;}</style><linearGradient id="Безымянный_градиент_64" x1="1634.73" y1="624.69" x2="326.27" y2="1380.13" gradientUnits="userSpaceOnUse"><stop offset="0" stop-color="#2d4e91"/><stop offset="0.21" stop-color="#32569e"/><stop offset="0.6" stop-color="#3d6cc1"/><stop offset="1" stop-color="#4c87ec"/></linearGradient><linearGradient id="Безымянный_градиент_56" x1="769.5" y1="1117.79" x2="1217.29" y2="855.92" gradientUnits="userSpaceOnUse"><stop offset="0" stop-color="#3044a0"/><stop offset="0.25" stop-color="#303e8b"/><stop offset="0.74" stop-color="#2f3368"/><stop offset="1" stop-color="#2f2f5b"/></linearGradient></defs><g id="Слой_3" data-name="Слой 3"><path class="cls-1" d="M1050,265.5l534.7,309.4a137.7,137.7,0,0,1,68.8,119.3l-.6,617.7a137.8,137.8,0,0,1-69,119.2l-535.2,308.4a137.7,137.7,0,0,1-137.7-.2L376.3,1430a138,138,0,0,1-68.8-119.3l.6-617.8a137.8,137.8,0,0,1,69-119.2L912.3,265.4A137.4,137.4,0,0,1,1050,265.5Z"/><rect class="cls-2" x="544.1" y="643.6" width="340.5" height="244.96" rx="22.9"/><rect class="cls-3" x="1169.6" y="588.7" width="348.4" height="212.98" rx="22.9"/><rect class="cls-2" x="1219.6" y="536.3" width="340.5" height="244.96" rx="22.9"/><rect class="cls-4" x="458.3" y="560.6" width="309.2" height="134.28" rx="22.9"/><rect class="cls-5" x="1061.4" y="1185.4" width="371.1" height="221.36" rx="22.9"/><rect class="cls-6" x="612.2" y="722.4" width="777.7" height="520.02" rx="22.9"/><path class="cls-7" d="M635.1,722.4H1367a22.9,22.9,0,0,1,22.9,22.9v67.3a0,0,0,0,1,0,0H612.2a0,0,0,0,1,0,0V745.2A22.9,22.9,0,0,1,635.1,722.4Z"/><ellipse class="cls-8" cx="671.7" cy="766.6" rx="16.3" ry="14.6"/><ellipse class="cls-8" cx="728" cy="766.6" rx="16.3" ry="14.6"/><ellipse class="cls-8" cx="784.3" cy="766.6" rx="16.3" ry="14.6"/><rect class="cls-9" x="713" y="877.4" width="587.6" height="104.98" rx="22.9"/><text class="cls-10" transform="translate(899.1 956.3) scale(1.12 1)"><tspan class="cls-11">WW</tspan><tspan x="129.5" y="0">W</tspan></text><rect class="cls-12" x="718.7" y="1046.5" width="285.3" height="11.39" rx="5.3"/><rect class="cls-12" x="1038.1" y="1046.5" width="47.3" height="11.39" rx="5.3"/><rect class="cls-12" x="1113.7" y="1046.5" width="89.9" height="11.39" rx="5.3"/><rect class="cls-12" x="1141.9" y="1101.4" width="154.9" height="11.39" rx="5.3"/><rect class="cls-12" x="916.5" y="1101.4" width="192" height="11.39" rx="5.3"/><rect class="cls-12" x="834.1" y="1101.4" width="49.4" height="11.39" rx="5.3"/><rect class="cls-12" x="716.7" y="1101.4" width="92.8" height="11.39" rx="5.3"/><rect class="cls-12" x="716.7" y="1159.2" width="126.2" height="11.39" rx="5.3"/><rect class="cls-12" x="866.5" y="1159.2" width="97.6" height="11.39" rx="5.3"/><rect class="cls-12" x="985" y="1159.2" width="62.2" height="11.39" rx="5.3"/><rect class="cls-13" x="1140.7" y="1139" width="371.1" height="221.36" rx="22.9"/><rect class="cls-14" x="1179.8" y="1164.4" width="293" height="91.76" rx="22.9"/><rect class="cls-14" x="1179.8" y="1284.6" width="293" height="25.23" rx="12.6"/><rect class="cls-15" x="458.1" y="1214.5" width="292.8" height="173.34" rx="22.9"/><rect class="cls-5" x="496.7" y="1340" width="54" height="15.06" rx="7.5"/><rect class="cls-5" x="571.9" y="1340" width="85.1" height="15.06" rx="7.5"/><rect class="cls-5" x="641.7" y="1293.6" width="85.1" height="15.06" rx="7.5"/><rect class="cls-5" x="496.7" y="1293.6" width="121.2" height="15.06" rx="7.5"/><rect class="cls-5" x="496.7" y="1247.3" width="224" height="15.06" rx="7.5"/></g></svg>