<svg id="Слой_1" data-name="Слой 1" xmlns="http://www.w3.org/2000/svg" width="2001" height="1887.3" viewBox="0 0 2001 1887.3"><defs><style>.cls-1{fill:#52b2ea;}.cls-2{fill:#204f7f;}.cls-3{fill:#52b3ec;}.cls-4{fill:#1c3b5b;}.cls-5{fill:#e1e3e8;}.cls-6{fill:#a9aaae;}.cls-7{fill:#ffc42e;}.cls-8{fill:#e5a13a;}.cls-9{fill:#babbbe;}</style></defs><path class="cls-1" d="M1070.7,265.1l539.9,312.3A138.9,138.9,0,0,1,1680,697.9l-.6,623.7a139.1,139.1,0,0,1-69.6,120.4l-540.5,311.3a138.9,138.9,0,0,1-139-.1L390.4,1440.8A139,139,0,0,1,321,1320.4l.6-623.8a139.2,139.2,0,0,1,69.6-120.3L931.7,264.9A138.9,138.9,0,0,1,1070.7,265.1Z"/><path class="cls-2" d="M1562.2,950.8A556.4,556.4,0,0,0,1542,848.5l-146.7-12.1a431.3,431.3,0,0,0-38.7-69.8L1423,634.5a566.7,566.7,0,0,0-73.5-69.3l-127.1,74.6a425.6,425.6,0,0,0-82-38.2L1114,455.9a555.3,555.3,0,0,0-97.2-11.2L958,580.4a435.2,435.2,0,0,0-91,19l-107.6-101a566.1,566.1,0,0,0-85.9,50.3l34.7,144A432.9,432.9,0,0,0,652.6,755L506.7,735A556.6,556.6,0,0,0,465,829.7l113,94.9a443.9,443.9,0,0,0-8.2,75.3l-131,67.6A564.8,564.8,0,0,0,459,1169.8l146.8,12.1a425.6,425.6,0,0,0,38.6,69.7L578,1383.8a573.6,573.6,0,0,0,73.5,69.3l127.1-74.6a434.5,434.5,0,0,0,82,38.2L887,1562.4a565,565,0,0,0,97.2,11.2l58.9-135.7a434.3,434.3,0,0,0,90.9-19l107.7,101a570.1,570.1,0,0,0,85.8-50.3l-34.6-144a438.3,438.3,0,0,0,55.5-62.3l145.9,20a565,565,0,0,0,41.8-94.7l-113.1-95a423.3,423.3,0,0,0,8.2-75.2Z"/><circle class="cls-3" cx="1000.5" cy="1009.1" r="282.8"/><path class="cls-4" d="M1000.5,663c-191.2,0-346.1,155-346.1,346.1s154.9,346.2,346.1,346.2,346.2-155,346.2-346.2S1191.7,663,1000.5,663Zm0,628.9c-156.2,0-282.8-126.6-282.8-282.8s126.6-282.8,282.8-282.8,282.8,126.7,282.8,282.8S1156.7,1291.9,1000.5,1291.9Z"/><path class="cls-5" d="M1471,1361.9,883.7,774.6A192.9,192.9,0,0,0,895.1,709c0-107.5-87.2-194.7-194.7-194.7a195.6,195.6,0,0,0-46.9,5.7L766.7,633.1,746.2,754.2,622.9,776.9,510.7,664.8a195.1,195.1,0,0,0-5,44.2c0,107.5,87.1,194.7,194.7,194.7A192.9,192.9,0,0,0,766,892.3l587.3,587.3a83.2,83.2,0,0,0,117.7,0h0A83.2,83.2,0,0,0,1471,1361.9Z"/><path class="cls-6" d="M883.7,774.6S845.2,867.8,766,892.3l23.8,23.8A201.2,201.2,0,0,0,907.6,798.6Z"/><path class="cls-6" d="M783.1,1132.8h736.7a34.5,34.5,0,0,1,34.5,34.5v3.6a34.5,34.5,0,0,1-34.5,34.5H783.1a16.5,16.5,0,0,1-16.5-16.5v-39.5A16.5,16.5,0,0,1,783.1,1132.8Z" transform="translate(1166.5 -478.1) rotate(45)"/><g id="отвертка"><path class="cls-7" d="M1005.5,1155.2,854.8,1001.6a13.4,13.4,0,0,0-19.1-.1l-24.4,24.4a13.7,13.7,0,0,0-.1,19.3l2.1,2.2L533,1327.8a103.6,103.6,0,0,0-.7,145.5l2.9,3a101.3,101.3,0,0,0,144.1.7l280.4-280.4,2.2,2.2a13.3,13.3,0,0,0,19,.1l24.5-24.5A13.7,13.7,0,0,0,1005.5,1155.2Z"/><path class="cls-8" d="M912.5,1147.3,610.6,1449.2a35.9,35.9,0,0,1-51.1-.2h0a36.8,36.8,0,0,1,.3-51.6l301.9-301.9Z"/><path class="cls-8" d="M813.6,1046.5,538.9,1321.2a35.9,35.9,0,0,0,41.5-6.7l248.8-248.8a2.5,2.5,0,0,0,.1-3.3Z"/><path class="cls-8" d="M960.2,1195.9,685.4,1470.6a37.1,37.1,0,0,1,7.1-41.9l248.8-248.8a2.3,2.3,0,0,1,3.2.1Z"/><polygon class="cls-9" points="1385.4 674.6 955.7 1104.4 906 1053.7 1335.6 624 1385.4 674.6"/><polygon class="cls-5" points="1434.6 656.7 1385.3 674.8 1335.6 624.1 1353.9 574.5 1448.6 511.5 1498.3 562.2 1434.6 656.7"/></g></svg>